<mxfile host="app.diagrams.net" modified="2024-04-05T04:11:05.640Z" agent="Mozilla/5.0 (Windows NT 10.0; Win64; x64) AppleWebKit/537.36 (KHTML, like Gecko) Chrome/123.0.0.0 Safari/537.36" version="24.0.5" etag="qJ0pjOTNvB7sbEAHCKVN" type="github">
  <diagram name="Page-1" id="BIpl9xGiTFtoDw7EwUbq">
    <mxGraphModel>
      <root>
        <mxCell id="0" />
        <mxCell id="1" parent="0" />
      </root>
    </mxGraphModel>
  </diagram>
</mxfile>
